<?xml version="1.0" encoding="utf-8"?>
<!-- Generator: Adobe Illustrator 25.4.1, SVG Export Plug-In . SVG Version: 6.00 Build 0)  -->
<svg version="1.1" id="Layer_1" xmlns="http://www.w3.org/2000/svg" xmlns:xlink="http://www.w3.org/1999/xlink" x="0px" y="0px"
	 viewBox="0 0 24 24" style="enable-background:new 0 0 24 24;" xml:space="preserve">
<style type="text/css">
	.st0{fill:none;}
	.st1{fill:#F0D8AA;}
</style>
<g>
	<rect class="st0" width="24" height="24"/>
	<path class="st1" d="M18,6h-2c0-2.2-1.8-4-4-4S8,3.8,8,6H6C4.9,6,4,6.9,4,8v12c0,1.1,0.9,2,2,2h12c1.1,0,2-0.9,2-2V8
		C20,6.9,19.1,6,18,6z M12,4c1.1,0,2,0.9,2,2h-4C10,4.9,10.9,4,12,4z M18,20H6V8h2v2c0,0.6,0.4,1,1,1s1-0.4,1-1V8h4v2
		c0,0.6,0.4,1,1,1s1-0.4,1-1V8h2V20z"/>
</g>
</svg>
