<?xml version="1.0" encoding="utf-8"?>
<!-- Generator: Adobe Illustrator 25.4.1, SVG Export Plug-In . SVG Version: 6.00 Build 0)  -->
<svg version="1.1" id="Layer_1" xmlns="http://www.w3.org/2000/svg" xmlns:xlink="http://www.w3.org/1999/xlink" x="0px" y="0px"
	 viewBox="0 0 88.5 61.1" style="enable-background:new 0 0 88.5 61.1;" xml:space="preserve">
<style type="text/css">
	.st0{fill:#5E3F1D;stroke:#231F20;stroke-linecap:round;stroke-miterlimit:10;}
	.st1{fill:none;stroke:#231F20;stroke-width:2;stroke-linecap:round;stroke-miterlimit:10;}
	.st2{font-family:'DMSans-Regular';}
	.st3{font-size:16.7892px;}
</style>
<line class="st0" x1="37.8" y1="11" x2="7.7" y2="20.4"/>
<line class="st0" x1="37" y1="14.4" x2="8.6" y2="23.3"/>
<line class="st0" x1="37.4" y1="17.8" x2="9.6" y2="26.5"/>
<line class="st0" x1="38.9" y1="20.6" x2="10.6" y2="29.5"/>
<line class="st0" x1="41.6" y1="23.2" x2="11.6" y2="32.6"/>
<line class="st0" x1="78.7" y1="22.4" x2="52.2" y2="5.3"/>
<line class="st0" x1="75.5" y1="24" x2="50.5" y2="7.9"/>
<line class="st0" x1="73.2" y1="26.5" x2="48.7" y2="10.7"/>
<line class="st0" x1="71.9" y1="29.5" x2="47" y2="13.4"/>
<line class="st0" x1="71.7" y1="33.2" x2="45.2" y2="16.1"/>
<path class="st1" d="M38.3,6.3L5.2,16.8c0,0-7,13.4,6.4,20.3l33.1-10.4"/>
<path class="st1" d="M82.6,19.9L53.4,1.1c0,0-14.7,3.2-11.5,17.9l29.2,18.8"/>
<text transform="matrix(1 0 0 1 2.8584 55.2865)" class="st2 st3">Book Nook</text>
</svg>
