<?xml version="1.0" encoding="utf-8"?>
<!-- Generator: Adobe Illustrator 25.4.1, SVG Export Plug-In . SVG Version: 6.00 Build 0)  -->
<svg version="1.1" id="Layer_1" xmlns="http://www.w3.org/2000/svg" xmlns:xlink="http://www.w3.org/1999/xlink" x="0px" y="0px"
	 viewBox="0 0 252 144" style="enable-background:new 0 0 252 144;" xml:space="preserve">
<style type="text/css">
	.st0{fill:#E8D8C4;}
	.st1{fill:none;stroke:#5E3F1C;stroke-width:2;stroke-linecap:round;stroke-miterlimit:10;}
	.st2{fill:none;stroke:#5E3F1C;stroke-linecap:round;stroke-miterlimit:10;}
	.st3{fill:#5E3F1C;}
	.st4{font-family:'Pattaya-Regular';}
	.st5{font-size:20.3618px;}
</style>
<circle class="st0" cx="126" cy="72" r="61.5"/>
<g>
	<g>
		<g>
			<path class="st1" d="M120.2,43.3L87.1,53.8c0,0-7,13.4,6.4,20.3l33.1-10.4"/>
			<g>
				<line class="st2" x1="119.7" y1="48" x2="89.6" y2="57.4"/>
				<line class="st2" x1="118.9" y1="51.4" x2="90.6" y2="60.3"/>
				<line class="st2" x1="119.3" y1="54.8" x2="91.5" y2="63.5"/>
				<line class="st2" x1="120.8" y1="57.6" x2="92.5" y2="66.5"/>
				<line class="st2" x1="123.5" y1="60.2" x2="93.5" y2="69.6"/>
			</g>
		</g>
		<g>
			<path class="st1" d="M164.5,56.9l-29.2-18.8c0,0-14.7,3.2-11.5,17.9l29.2,18.8"/>
			<g>
				<line class="st2" x1="160.6" y1="59.4" x2="134.1" y2="42.3"/>
				<line class="st2" x1="157.4" y1="61" x2="132.4" y2="44.9"/>
				<line class="st2" x1="155.1" y1="63.5" x2="130.6" y2="47.7"/>
				<line class="st2" x1="153.9" y1="66.5" x2="128.9" y2="50.4"/>
				<line class="st2" x1="153.6" y1="70.2" x2="127.1" y2="53.1"/>
			</g>
		</g>
	</g>
	<text transform="matrix(1 0 0 1 81.6123 97.7923)" class="st3 st4 st5">Book Nook</text>
</g>
</svg>
