<?xml version="1.0" encoding="utf-8"?>
<!-- Generator: Adobe Illustrator 25.4.1, SVG Export Plug-In . SVG Version: 6.00 Build 0)  -->
<svg version="1.1" id="Layer_1" xmlns="http://www.w3.org/2000/svg" xmlns:xlink="http://www.w3.org/1999/xlink" x="0px" y="0px"
	 viewBox="0 0 88.5 61.1" style="enable-background:new 0 0 88.5 61.1;" xml:space="preserve">
<style type="text/css">
	.st0{fill:none;stroke:#231F20;stroke-width:0.7;stroke-linecap:square;stroke-miterlimit:10;}
	.st1{fill:none;stroke:#231F20;stroke-width:1.5;stroke-linecap:square;stroke-miterlimit:10;}
	.st2{enable-background:new    ;}
</style>
<line class="st0" x1="37.8" y1="11" x2="7.7" y2="20.4"/>
<line class="st0" x1="37" y1="14.4" x2="8.6" y2="23.3"/>
<line class="st0" x1="37.4" y1="17.8" x2="9.6" y2="26.5"/>
<line class="st0" x1="38.9" y1="20.6" x2="10.6" y2="29.5"/>
<line class="st0" x1="41.6" y1="23.2" x2="11.6" y2="32.6"/>
<line class="st0" x1="78.7" y1="22.4" x2="52.2" y2="5.3"/>
<line class="st0" x1="75.5" y1="24" x2="50.5" y2="7.9"/>
<line class="st0" x1="73.2" y1="26.5" x2="48.7" y2="10.7"/>
<line class="st0" x1="71.9" y1="29.5" x2="47" y2="13.4"/>
<line class="st0" x1="71.7" y1="33.2" x2="45.2" y2="16.1"/>
<path class="st1" d="M38.3,6.3L5.2,16.8c0,0-7,13.4,6.4,20.3l33.1-10.4"/>
<path class="st1" d="M82.6,19.9L53.4,1.1c0,0-14.7,3.2-11.5,17.9l29.2,18.8"/>
<g class="st2">
	<path d="M8,48.3h1.9c0.4,0,0.7-0.1,1.1-0.2c0.3-0.1,0.6-0.3,0.7-0.6c0.2-0.3,0.3-0.6,0.3-0.9c0-0.6-0.2-1-0.6-1.3
		c-0.4-0.3-0.9-0.5-1.5-0.5H8.3V54h1.8c0.5,0,0.9-0.1,1.3-0.3c0.4-0.2,0.7-0.4,0.9-0.8s0.3-0.7,0.3-1.2c0-0.4-0.1-0.7-0.2-1
		c-0.1-0.3-0.3-0.5-0.5-0.7s-0.5-0.3-0.8-0.4c-0.3-0.1-0.7-0.1-1-0.1H8v-0.8h2.1c0.6,0,1.1,0.1,1.6,0.2c0.5,0.1,0.9,0.3,1.3,0.6
		s0.6,0.6,0.8,1c0.2,0.4,0.3,0.9,0.3,1.4c0,0.8-0.2,1.4-0.5,1.9c-0.4,0.5-0.8,0.9-1.4,1.1s-1.3,0.4-2,0.4H6.9V43.5h3
		c0.7,0,1.3,0.1,1.8,0.3c0.5,0.2,0.9,0.5,1.2,1s0.4,1,0.4,1.7c0,0.5-0.1,1-0.4,1.4c-0.3,0.4-0.7,0.7-1.2,0.9
		c-0.5,0.2-1.1,0.3-1.8,0.3H8V48.3z"/>
	<path d="M16,49.3c0.4-0.6,0.8-1.1,1.4-1.4c0.6-0.3,1.3-0.5,2-0.5c0.8,0,1.4,0.2,2,0.5c0.6,0.3,1.1,0.8,1.4,1.4s0.5,1.3,0.5,2.1
		c0,0.8-0.2,1.5-0.5,2.1s-0.8,1.1-1.4,1.4c-0.6,0.3-1.3,0.5-2,0.5c-0.8,0-1.4-0.2-2-0.5c-0.6-0.3-1.1-0.8-1.4-1.4
		c-0.4-0.6-0.5-1.3-0.5-2.1C15.5,50.6,15.6,49.9,16,49.3z M17.2,52.9c0.2,0.4,0.5,0.7,0.9,1c0.4,0.2,0.8,0.4,1.4,0.4
		c0.5,0,1-0.1,1.4-0.4c0.4-0.2,0.7-0.6,0.9-1s0.3-0.9,0.3-1.4s-0.1-1-0.3-1.4s-0.5-0.7-0.9-1c-0.4-0.2-0.8-0.4-1.4-0.4
		c-0.5,0-1,0.1-1.4,0.4c-0.4,0.2-0.7,0.6-0.9,1s-0.3,0.9-0.3,1.4S16.9,52.4,17.2,52.9z"/>
	<path d="M25.2,49.3c0.4-0.6,0.8-1.1,1.4-1.4c0.6-0.3,1.3-0.5,2-0.5c0.8,0,1.4,0.2,2,0.5c0.6,0.3,1.1,0.8,1.4,1.4s0.5,1.3,0.5,2.1
		c0,0.8-0.2,1.5-0.5,2.1s-0.8,1.1-1.4,1.4c-0.6,0.3-1.3,0.5-2,0.5c-0.8,0-1.4-0.2-2-0.5c-0.6-0.3-1.1-0.8-1.4-1.4
		c-0.4-0.6-0.5-1.3-0.5-2.1C24.6,50.6,24.8,49.9,25.2,49.3z M26.3,52.9c0.2,0.4,0.5,0.7,0.9,1c0.4,0.2,0.8,0.4,1.4,0.4
		c0.5,0,1-0.1,1.4-0.4c0.4-0.2,0.7-0.6,0.9-1s0.3-0.9,0.3-1.4s-0.1-1-0.3-1.4s-0.5-0.7-0.9-1c-0.4-0.2-0.8-0.4-1.4-0.4
		c-0.5,0-1,0.1-1.4,0.4c-0.4,0.2-0.7,0.6-0.9,1S26,50.9,26,51.4S26.1,52.4,26.3,52.9z"/>
	<path d="M35.7,42.2v13.1h-1.3V42.2H35.7z M40.3,47.6l-3.4,3.2l3.7,4.5h-1.7l-3.7-4.5l3.4-3.2H40.3z"/>
	<path d="M57.3,43.5v12.3l-8.9-9.3v8.7H47V42.9l8.9,9.3v-8.7H57.3z"/>
	<path d="M59.8,49.3c0.4-0.6,0.8-1.1,1.4-1.4c0.6-0.3,1.3-0.5,2-0.5c0.8,0,1.4,0.2,2,0.5s1.1,0.8,1.4,1.4s0.5,1.3,0.5,2.1
		c0,0.8-0.2,1.5-0.5,2.1s-0.8,1.1-1.4,1.4s-1.3,0.5-2,0.5c-0.8,0-1.4-0.2-2-0.5c-0.6-0.3-1.1-0.8-1.4-1.4c-0.4-0.6-0.5-1.3-0.5-2.1
		C59.2,50.6,59.4,49.9,59.8,49.3z M60.9,52.9c0.2,0.4,0.5,0.7,0.9,1c0.4,0.2,0.8,0.4,1.4,0.4s1-0.1,1.4-0.4c0.4-0.2,0.7-0.6,0.9-1
		c0.2-0.4,0.3-0.9,0.3-1.4s-0.1-1-0.3-1.4c-0.2-0.4-0.5-0.7-0.9-1c-0.4-0.2-0.8-0.4-1.4-0.4s-1,0.1-1.4,0.4c-0.4,0.2-0.7,0.6-0.9,1
		s-0.3,0.9-0.3,1.4S60.7,52.4,60.9,52.9z"/>
	<path d="M68.9,49.3c0.4-0.6,0.8-1.1,1.4-1.4c0.6-0.3,1.3-0.5,2-0.5c0.8,0,1.4,0.2,2,0.5c0.6,0.3,1.1,0.8,1.4,1.4s0.5,1.3,0.5,2.1
		c0,0.8-0.2,1.5-0.5,2.1s-0.8,1.1-1.4,1.4c-0.6,0.3-1.3,0.5-2,0.5c-0.8,0-1.4-0.2-2-0.5c-0.6-0.3-1.1-0.8-1.4-1.4s-0.5-1.3-0.5-2.1
		C68.4,50.6,68.6,49.9,68.9,49.3z M70.1,52.9c0.2,0.4,0.5,0.7,0.9,1s0.8,0.4,1.4,0.4c0.5,0,1-0.1,1.4-0.4s0.7-0.6,0.9-1
		c0.2-0.4,0.3-0.9,0.3-1.4s-0.1-1-0.3-1.4c-0.2-0.4-0.5-0.7-0.9-1s-0.8-0.4-1.4-0.4c-0.5,0-1,0.1-1.4,0.4s-0.7,0.6-0.9,1
		s-0.3,0.9-0.3,1.4S69.9,52.4,70.1,52.9z"/>
	<path d="M79.5,42.2v13.1h-1.3V42.2H79.5z M84,47.6l-3.4,3.2l3.7,4.5h-1.7L79,50.8l3.4-3.2H84z"/>
</g>
</svg>
