<svg id="Layer_1" data-name="Layer 1" xmlns="http://www.w3.org/2000/svg" viewBox="0 0 88.52 61.1"><defs><style>.cls-1,.cls-2{fill:none;stroke:#5e3f1c;stroke-linecap:round;stroke-miterlimit:10;}.cls-2{stroke-width:2px;}.cls-3{isolation:isolate;}.cls-4{fill:#5e3f1c;}</style></defs><line class="cls-1" x1="37.84" y1="10.97" x2="7.74" y2="20.37"/><line class="cls-1" x1="37.04" y1="14.37" x2="8.64" y2="23.27"/><line class="cls-1" x1="37.44" y1="17.77" x2="9.64" y2="26.47"/><line class="cls-1" x1="38.94" y1="20.57" x2="10.64" y2="29.47"/><line class="cls-1" x1="41.64" y1="23.17" x2="11.64" y2="32.57"/><line class="cls-1" x1="78.74" y1="22.37" x2="52.24" y2="5.27"/><line class="cls-1" x1="75.54" y1="23.97" x2="50.54" y2="7.87"/><line class="cls-1" x1="73.24" y1="26.47" x2="48.74" y2="10.67"/><line class="cls-1" x1="71.94" y1="29.47" x2="47.04" y2="13.37"/><line class="cls-1" x1="71.74" y1="33.17" x2="45.24" y2="16.07"/><path class="cls-2" d="M55.7,32.8,22.6,43.3s-7,13.4,6.4,20.3L62.1,53.2" transform="translate(-17.36 -26.53)"/><path class="cls-2" d="M100,46.4,70.8,27.6S56.1,30.8,59.3,45.5L88.5,64.3" transform="translate(-17.36 -26.53)"/><g class="cls-3"><path class="cls-4" d="M23.66,87.35A1.31,1.31,0,0,1,23,86.13a3.22,3.22,0,0,1,.25-1.19,2.76,2.76,0,0,0,.7.58,1.58,1.58,0,0,0,.68.16c.67,0,1.19-.42,1.56-1.25a4.7,4.7,0,0,0,.33-1.15A6.85,6.85,0,0,0,26.61,82a3.5,3.5,0,0,0-.4-1.83,1.68,1.68,0,0,0-1.52-.76,5.08,5.08,0,0,0-.94.07l-1.67,7.79H19.15l2.76-13,3-.4-1,4.51h.12a2.26,2.26,0,0,0,1.12-.29,3.2,3.2,0,0,0,.95-.78,4.31,4.31,0,0,0,.63-1.08A3.18,3.18,0,0,0,27,75.15a2.31,2.31,0,0,0-.15-.83,2.14,2.14,0,0,0-.46-.69A2.9,2.9,0,0,0,24.34,73a5.42,5.42,0,0,0-2.38.54A4.7,4.7,0,0,0,20,75.13a4.92,4.92,0,0,0-.79,2.78,2.72,2.72,0,0,0,.15,1,.8.8,0,0,0,.1.23.33.33,0,0,1,0,.14,2.56,2.56,0,0,1-1.63-.44,1.68,1.68,0,0,1-.55-1.43,4.09,4.09,0,0,1,1.06-2.66,6.59,6.59,0,0,1,1.19-1.09,7.8,7.8,0,0,1,1.52-.87A8.72,8.72,0,0,1,24.74,72,5,5,0,0,1,28,73a3.16,3.16,0,0,1,.78,1,3.05,3.05,0,0,1,.26,1.23,3.27,3.27,0,0,1-.52,1.79A4.12,4.12,0,0,1,27,78.49a2.69,2.69,0,0,1,1.86,1.18,3.86,3.86,0,0,1,.55,2.1,8.26,8.26,0,0,1-.1,1.15,9.31,9.31,0,0,1-.3,1.24,5.7,5.7,0,0,1-1.38,2.39A3.68,3.68,0,0,1,25,87.64,2.65,2.65,0,0,1,23.66,87.35Z" transform="translate(-17.36 -26.53)"/><path class="cls-4" d="M30.8,86.63a3.09,3.09,0,0,1-.92-2.47A9,9,0,0,1,30,82.77a9.59,9.59,0,0,1,.4-1.53,7.19,7.19,0,0,1,1.76-3,4.55,4.55,0,0,1,3.29-1.35c1.74,0,2.62,1.08,2.62,3.25v0l.1,0h.12a4.22,4.22,0,0,0,1.6-.38A8,8,0,0,0,41.43,79l.18.56a5.11,5.11,0,0,1-1.54,1.06,8.33,8.33,0,0,1-2.07.63,9.7,9.7,0,0,1-.54,2.52,7.13,7.13,0,0,1-1.07,2,4.6,4.6,0,0,1-1.48,1.22,3.79,3.79,0,0,1-1.77.43A3.4,3.4,0,0,1,30.8,86.63Zm3.88-1.41a3.56,3.56,0,0,0,.7-.9A7,7,0,0,0,36,83a10.35,10.35,0,0,0,.36-1.66.73.73,0,0,1-.43-.3,1.16,1.16,0,0,1-.12-.56,1.37,1.37,0,0,1,.17-.7,1,1,0,0,1,.47-.4,2.27,2.27,0,0,0-.21-.93.55.55,0,0,0-.23-.2.83.83,0,0,0-.34-.06c-.46,0-.9.35-1.34,1a8.3,8.3,0,0,0-1,2.3,9,9,0,0,0-.37,2.39,5.87,5.87,0,0,0,.05.82,1.16,1.16,0,0,0,.19.5.68.68,0,0,0,.3.26,1.43,1.43,0,0,0,.5.07A1.15,1.15,0,0,0,34.68,85.22Z" transform="translate(-17.36 -26.53)"/><path class="cls-4" d="M39.74,86.63a3.1,3.1,0,0,1-.93-2.47,8,8,0,0,1,.13-1.39,9.59,9.59,0,0,1,.4-1.53,7.19,7.19,0,0,1,1.76-3,4.55,4.55,0,0,1,3.29-1.35C46.13,76.93,47,78,47,80.18v0l.1,0h.12a4.17,4.17,0,0,0,1.6-.38A7.41,7.41,0,0,0,50.36,79l.18.56A5.06,5.06,0,0,1,49,80.62a8.28,8.28,0,0,1-2.08.63,9.7,9.7,0,0,1-.53,2.52,6.89,6.89,0,0,1-1.08,2,4.5,4.5,0,0,1-1.48,1.22,3.73,3.73,0,0,1-1.77.43A3.38,3.38,0,0,1,39.74,86.63Zm3.88-1.41a3.56,3.56,0,0,0,.7-.9A7,7,0,0,0,44.89,83a11.58,11.58,0,0,0,.35-1.66.68.68,0,0,1-.42-.3,1.16,1.16,0,0,1-.12-.56,1.28,1.28,0,0,1,.17-.7,1,1,0,0,1,.46-.4,2,2,0,0,0-.21-.93.53.53,0,0,0-.22-.2.83.83,0,0,0-.34-.06c-.46,0-.91.35-1.34,1a8.3,8.3,0,0,0-1,2.3,9.05,9.05,0,0,0-.38,2.39,4.51,4.51,0,0,0,.06.82,1.31,1.31,0,0,0,.18.5.65.65,0,0,0,.31.26,1.4,1.4,0,0,0,.5.07A1.15,1.15,0,0,0,43.62,85.22Z" transform="translate(-17.36 -26.53)"/><path class="cls-4" d="M53.78,86.81a2.18,2.18,0,0,1-.65-1.72A5.22,5.22,0,0,1,53.25,84l.17-.8a3.1,3.1,0,0,0,.08-.74,1.33,1.33,0,0,0-.17-.73.65.65,0,0,0-.57-.26,1.56,1.56,0,0,0-.69.19,5.61,5.61,0,0,0-.81.57l-1.07,5H47.26l3-13.85,3-.41L51.71,80.2l3.92-3.09h2l-4.07,2.83a2.63,2.63,0,0,1,.67-.09,2.48,2.48,0,0,1,1,.19,1.85,1.85,0,0,1,.71.52,2.1,2.1,0,0,1,.41.75,3.12,3.12,0,0,1,.14.93,3.4,3.4,0,0,1-.08.78l-.23,1a2.16,2.16,0,0,0-.1.66.68.68,0,0,0,.8.75,1.27,1.27,0,0,0,1-.5,5.09,5.09,0,0,0,.69-1.3h.85a6.25,6.25,0,0,1-2,3.16,2.85,2.85,0,0,1-1.79.61A2.72,2.72,0,0,1,53.78,86.81Z" transform="translate(-17.36 -26.53)"/><path class="cls-4" d="M67.94,73.34a4.14,4.14,0,0,0-2.11,1.54,4.34,4.34,0,0,0-.71,2.54,5,5,0,0,0,.14,1.2,2.66,2.66,0,0,0,.4.88A2.86,2.86,0,0,1,63.74,79a2.05,2.05,0,0,1-.62-1.67A4.72,4.72,0,0,1,64,74.61a6.06,6.06,0,0,1,2.22-1.93,6.76,6.76,0,0,1,3.11-.74,4.91,4.91,0,0,1,.82.06,6.44,6.44,0,0,1,.79.22l2.46,10.89,2.28-11h2L74.3,87.29H71.49l-2.36-10.1-2.32,10.1H64.88Z" transform="translate(-17.36 -26.53)"/><path class="cls-4" d="M77.24,86.63a3.1,3.1,0,0,1-.93-2.47,8,8,0,0,1,.13-1.39,9.59,9.59,0,0,1,.4-1.53,7.08,7.08,0,0,1,1.76-3,4.55,4.55,0,0,1,3.29-1.35c1.74,0,2.61,1.08,2.61,3.25v0l.1,0h.12a4.17,4.17,0,0,0,1.6-.38A7.41,7.41,0,0,0,87.86,79l.18.56a5.19,5.19,0,0,1-1.53,1.06,8.28,8.28,0,0,1-2.08.63,10.13,10.13,0,0,1-.53,2.52,6.89,6.89,0,0,1-1.08,2,4.5,4.5,0,0,1-1.48,1.22,3.76,3.76,0,0,1-1.77.43A3.38,3.38,0,0,1,77.24,86.63Zm3.88-1.41a3.56,3.56,0,0,0,.7-.9A7,7,0,0,0,82.39,83a11.58,11.58,0,0,0,.35-1.66.68.68,0,0,1-.42-.3,1.16,1.16,0,0,1-.12-.56,1.28,1.28,0,0,1,.17-.7,1,1,0,0,1,.46-.4,2,2,0,0,0-.21-.93.53.53,0,0,0-.22-.2.83.83,0,0,0-.34-.06c-.46,0-.91.35-1.35,1a8.6,8.6,0,0,0-1,2.3,9.05,9.05,0,0,0-.38,2.39,4.51,4.51,0,0,0,.06.82,1.17,1.17,0,0,0,.18.5.65.65,0,0,0,.31.26,1.4,1.4,0,0,0,.5.07A1.15,1.15,0,0,0,81.12,85.22Z" transform="translate(-17.36 -26.53)"/><path class="cls-4" d="M86.17,86.63a3.13,3.13,0,0,1-.92-2.47,8,8,0,0,1,.13-1.39,8.63,8.63,0,0,1,.4-1.53,7.08,7.08,0,0,1,1.76-3,4.53,4.53,0,0,1,3.29-1.35c1.74,0,2.61,1.08,2.61,3.25v0l.1,0h.12a4.22,4.22,0,0,0,1.6-.38A7.68,7.68,0,0,0,96.8,79l.18.56a5.11,5.11,0,0,1-1.54,1.06,8.08,8.08,0,0,1-2.07.63,9.7,9.7,0,0,1-.54,2.52,6.63,6.63,0,0,1-1.07,2,4.5,4.5,0,0,1-1.48,1.22,3.79,3.79,0,0,1-1.77.43A3.4,3.4,0,0,1,86.17,86.63Zm3.89-1.41a3.8,3.8,0,0,0,.7-.9A7.73,7.73,0,0,0,91.32,83a10.35,10.35,0,0,0,.36-1.66.68.68,0,0,1-.42-.3,1.06,1.06,0,0,1-.13-.56,1.37,1.37,0,0,1,.17-.7,1,1,0,0,1,.47-.4,2.27,2.27,0,0,0-.21-.93.53.53,0,0,0-.22-.2.86.86,0,0,0-.34-.06c-.46,0-.91.35-1.35,1a8.6,8.6,0,0,0-1,2.3,9.05,9.05,0,0,0-.38,2.39,5.87,5.87,0,0,0,0,.82,1.16,1.16,0,0,0,.19.5.65.65,0,0,0,.31.26,1.34,1.34,0,0,0,.49.07A1.18,1.18,0,0,0,90.06,85.22Z" transform="translate(-17.36 -26.53)"/><path class="cls-4" d="M100.21,86.81a2.22,2.22,0,0,1-.65-1.72A5.22,5.22,0,0,1,99.68,84l.17-.8a2.66,2.66,0,0,0,.08-.74,1.25,1.25,0,0,0-.17-.73.62.62,0,0,0-.56-.26,1.56,1.56,0,0,0-.69.19,5.11,5.11,0,0,0-.81.57l-1.07,5H93.7l3-13.85,3-.41L98.14,80.2l3.93-3.09h2L100,79.94a2.71,2.71,0,0,1,.68-.09,2.52,2.52,0,0,1,1,.19,1.92,1.92,0,0,1,.71.52,2.26,2.26,0,0,1,.41.75,3.12,3.12,0,0,1,.13.93,2.92,2.92,0,0,1-.08.78l-.22,1a2.16,2.16,0,0,0-.1.66.81.81,0,0,0,.18.55.78.78,0,0,0,.61.2,1.27,1.27,0,0,0,1-.5,4.83,4.83,0,0,0,.68-1.3h.86a6.25,6.25,0,0,1-2,3.16,2.85,2.85,0,0,1-1.79.61A2.76,2.76,0,0,1,100.21,86.81Z" transform="translate(-17.36 -26.53)"/></g></svg>